<svg role="image" focusable="false" xmlns="http://www.w3.org/2000/svg" viewBox="0 0 536.396 136.068" >
  <title>Liminal</title>
  <defs>
    <linearGradient id="logoGradient" x1="221.678" y1="330.549" x2="311.276" y2="-177.587" gradientUnits="userSpaceOnUse">
      <stop offset="0" stop-color="#0f1238"/>
      <stop offset=".42" stop-color="#ce4c27"/>
      <stop offset=".471" stop-color="#d66125" stop-opacity=".996"/>
      <stop offset=".561" stop-color="#e28123" stop-opacity=".99"/>
      <stop offset=".655" stop-color="#eb9921" stop-opacity=".986"/>
      <stop offset=".755" stop-color="#f2ab20" stop-opacity=".983"/>
      <stop offset=".864" stop-color="#f6b51f" stop-opacity=".981"/>
      <stop offset="1" stop-color="#f8b91f" stop-opacity=".98"/>
    </linearGradient>
    <style>
      #logoPath{fill:url(#logoGradient)}
    </style>
  </defs>
  <path d="M30.384 114.876h10.315v18.567c-6.128 1.75-11.504 2.625-16.13 2.625C8.19 136.068 0 128.848 0 114.407V0h25.414v109.25c0 3.75 1.655 5.626 4.97 5.626ZM221.39 47.028c-7.408-4.97-16.645-7.455-27.71-7.455-14.13 0-23.82 4.126-29.07 12.379-5.252-8.253-14.911-12.379-28.977-12.379-11.129 0-20.413 2.485-27.852 7.455-7.44 4.97-11.16 14.52-11.16 28.65v60.39h25.414V76.24c0-6.751 1.203-11.033 3.61-12.847 2.406-1.812 6.143-2.719 11.207-2.719s8.829 1.031 11.3 3.095c2.469 2.063 3.704 6.22 3.704 12.471v59.83h25.413v-59.83c0-6.25 1.234-10.409 3.704-12.471 2.469-2.064 6.236-3.095 11.3-3.095s8.799.907 11.206 2.72c2.406 1.813 3.61 6.095 3.61 12.846v59.83h25.414V75.677c0-14.128-3.704-23.679-11.113-28.649Zm145.961 1.407c-8.002-5.908-19.162-8.862-33.477-8.862-14.193 0-25.305 2.954-33.338 8.862-8.034 5.908-12.05 15.894-12.05 29.961v57.672h25.413V78.96c0-6.438 1.28-11.096 3.845-13.973 2.563-2.875 7.971-4.313 16.223-4.313 8.19 0 13.566 1.438 16.13 4.313 2.562 2.877 3.845 7.535 3.845 13.973v57.11h25.413V78.395c0-14.067-4.002-24.053-12.004-29.96Zm158.73 66.44c-3.314 0-4.97-1.875-4.97-5.626V0h-25.413v114.407c0 14.441 8.19 21.661 24.569 21.661 4.626 0 10.002-.875 16.13-2.625v-18.567H526.08Zm-40.334-.094h.732v20.672c-1.998.29-3.895.46-5.68.5v.02h-.866c-11.713 0-19.207-3.719-22.54-11.108l-2.047 2.389c-5.126 5.876-13.817 8.815-26.069 8.815-11.066 0-20.162-2.657-27.289-7.972-7.127-5.313-10.69-12.597-10.69-21.85 0-9.877 4.234-17.301 12.706-22.271 8.471-4.97 20.458-7.486 35.964-7.55h15.34c-.163-4.86-1.115-8.625-2.878-11.262a10.922 10.922 0 0 0-.929-1.21c-2.564-2.874-7.94-4.313-16.13-4.313-.25 0-.492.006-.738.008-7.832.086-13 1.518-15.485 4.305-1.45 1.628-2.477 3.842-3.104 6.613h-25.802c1.052-9.795 4.497-17.159 10.34-22.087.44-.372.891-.733 1.359-1.076 7.944-5.844 18.907-8.793 32.877-8.857.155 0 .305-.006.46-.006 14.316 0 25.475 2.954 33.478 8.863 2.821 2.082 5.134 4.682 6.96 7.779 1.105 1.872 2.015 3.946 2.763 6.187 1.525 4.568 2.32 9.884 2.32 15.995v32.167c.115 3.488 1.752 5.25 4.949 5.25Zm-30.4-21.193h-17.162c-8.252 0-13.894 1-16.926 3-3.034 2.002-4.548 4.628-4.548 7.878 0 2.876 1.233 5.33 3.704 7.36 2.468 2.033 6.11 3.049 10.925 3.049 7.939 0 13.926-1.22 17.958-3.657 4.032-2.439 6.048-5.752 6.048-9.94v-7.69ZM259.938.048c-10.191 0-15.286 4.658-15.286 13.973 0 9.628 5.095 14.441 15.286 14.441 10.127 0 15.191-4.813 15.191-14.441 0-9.315-5.064-13.973-15.191-13.973ZM66.77.048c-10.191 0-15.286 4.658-15.286 13.973 0 9.628 5.095 14.441 15.286 14.441 10.128 0 15.191-4.813 15.191-14.441 0-9.315-5.064-13.973-15.191-13.973Zm180.754 136.02h26.063V38.586h-26.063v97.483Zm-193.466 0h26.063V38.586H54.059v97.483Z" id="logoPath"/>
</svg>